<svg width="99" height="99" viewBox="0 0 99 99" fill="none" xmlns="http://www.w3.org/2000/svg">
<g filter="url(#filter0_ddddd)">
<path d="M34.2155 2.3543C37.3237 -0.785744 42.3632 -0.785744 45.4715 2.3543L62.3555 19.411C65.4637 22.551 65.4637 27.642 62.3555 30.7821L45.4715 47.8388C42.3632 50.9788 37.3237 50.9788 34.2155 47.8388L17.3314 30.7821C14.2232 27.642 14.2232 22.551 17.3314 19.411L34.2155 2.3543Z" fill="#18E8A4"/>
</g>
<path d="M43.4799 19.7435V30.5181C43.4799 32.5887 41.8526 34.2658 39.8435 34.2658C37.8344 34.2658 36.2071 32.5887 36.2071 30.5181V18.8065C36.2071 17.5136 37.2253 16.4642 38.4799 16.4642C39.7344 16.4642 40.7526 17.5136 40.7526 18.8065V28.6442C40.7526 29.1595 40.3435 29.5811 39.8435 29.5811C39.3435 29.5811 38.9344 29.1595 38.9344 28.6442V19.7435H37.5708V28.6442C37.5708 29.9372 38.589 30.9865 39.8435 30.9865C41.0981 30.9865 42.1162 29.9372 42.1162 28.6442V18.8065C42.1162 16.7359 40.489 15.0588 38.4799 15.0588C36.4708 15.0588 34.8435 16.7359 34.8435 18.8065V30.5181C34.8435 33.3663 37.0799 35.6711 39.8435 35.6711C42.6071 35.6711 44.8435 33.3663 44.8435 30.5181V19.7435H43.4799Z" fill="black"/>
<defs>
<filter id="filter0_ddddd" x="-0.999756" y="-0.000732422" width="81.6864" height="98.1945" filterUnits="userSpaceOnUse" color-interpolation-filters="sRGB">
<feFlood flood-opacity="0" result="BackgroundImageFix"/>
<feColorMatrix in="SourceAlpha" type="matrix" values="0 0 0 0 0 0 0 0 0 0 0 0 0 0 0 0 0 0 127 0" result="hardAlpha"/>
<feOffset dy="2"/>
<feGaussianBlur stdDeviation="0.5"/>
<feColorMatrix type="matrix" values="0 0 0 0 0 0 0 0 0 0 0 0 0 0 0 0 0 0 0.09 0"/>
<feBlend mode="normal" in2="BackgroundImageFix" result="effect1_dropShadow"/>
<feColorMatrix in="SourceAlpha" type="matrix" values="0 0 0 0 0 0 0 0 0 0 0 0 0 0 0 0 0 0 127 0" result="hardAlpha"/>
<feOffset dy="4"/>
<feGaussianBlur stdDeviation="1"/>
<feColorMatrix type="matrix" values="0 0 0 0 0 0 0 0 0 0 0 0 0 0 0 0 0 0 0.09 0"/>
<feBlend mode="normal" in2="effect1_dropShadow" result="effect2_dropShadow"/>
<feColorMatrix in="SourceAlpha" type="matrix" values="0 0 0 0 0 0 0 0 0 0 0 0 0 0 0 0 0 0 127 0" result="hardAlpha"/>
<feOffset dy="8"/>
<feGaussianBlur stdDeviation="2"/>
<feColorMatrix type="matrix" values="0 0 0 0 0 0 0 0 0 0 0 0 0 0 0 0 0 0 0.09 0"/>
<feBlend mode="normal" in2="effect2_dropShadow" result="effect3_dropShadow"/>
<feColorMatrix in="SourceAlpha" type="matrix" values="0 0 0 0 0 0 0 0 0 0 0 0 0 0 0 0 0 0 127 0" result="hardAlpha"/>
<feOffset dy="16"/>
<feGaussianBlur stdDeviation="4"/>
<feColorMatrix type="matrix" values="0 0 0 0 0 0 0 0 0 0 0 0 0 0 0 0 0 0 0.09 0"/>
<feBlend mode="normal" in2="effect3_dropShadow" result="effect4_dropShadow"/>
<feColorMatrix in="SourceAlpha" type="matrix" values="0 0 0 0 0 0 0 0 0 0 0 0 0 0 0 0 0 0 127 0" result="hardAlpha"/>
<feOffset dy="32"/>
<feGaussianBlur stdDeviation="8"/>
<feColorMatrix type="matrix" values="0 0 0 0 0 0 0 0 0 0 0 0 0 0 0 0 0 0 0.09 0"/>
<feBlend mode="normal" in2="effect4_dropShadow" result="effect5_dropShadow"/>
<feBlend mode="normal" in="SourceGraphic" in2="effect5_dropShadow" result="shape"/>
</filter>
</defs>
</svg>
