<svg width="82" height="99" viewBox="0 0 82 99" fill="none" xmlns="http://www.w3.org/2000/svg">
<g filter="url(#filter0_ddddd)">
<path fill-rule="evenodd" clip-rule="evenodd" d="M46.4712 2.35503C43.363 -0.785011 38.3235 -0.785012 35.2152 2.35503L18.3312 19.4117C15.2229 22.5517 15.2229 27.6428 18.3312 30.7828L35.2152 47.8395C38.3235 50.9795 43.363 50.9795 46.4712 47.8395L53.6112 40.6265L48.4654 35.4956C46.4676 36.8795 44.241 37.5715 41.7857 37.5715C40.1897 37.5715 38.6635 37.2618 37.207 36.6423C35.7505 36.0229 34.4949 35.1859 33.4402 34.1312C32.3856 33.0765 31.5485 31.8209 30.9291 30.3644C30.3097 28.908 30 27.3817 30 25.7858C30 24.1898 30.3097 22.6635 30.9291 21.2071C31.5485 19.7506 32.3856 18.495 33.4402 17.4403C34.4949 16.3856 35.7505 15.5486 37.207 14.9292C38.6635 14.3098 40.1897 14 41.7857 14C43.3816 14 44.9079 14.3098 46.3643 14.9292C47.8208 15.5486 49.0764 16.3856 50.1311 17.4403C51.1858 18.495 52.0228 19.7506 52.6422 21.2071C53.2617 22.6635 53.5714 24.1898 53.5714 25.7858C53.5714 28.2411 52.8794 30.4677 51.4955 32.4654L56.6185 37.5885L63.3552 30.7828C66.4635 27.6428 66.4635 22.5518 63.3552 19.4117L46.4712 2.35503ZM49.2857 25.7858C49.2857 27.8505 48.5491 29.6195 47.0759 31.0927C45.6139 32.5547 43.8505 33.2858 41.7857 33.2858C39.721 33.2858 37.9548 32.5519 36.4872 31.0843C35.0195 29.6167 34.2857 27.8505 34.2857 25.7858C34.2857 23.721 35.0195 21.9548 36.4872 20.4872C37.9548 19.0196 39.721 18.2858 41.7857 18.2858C43.8505 18.2858 45.6166 19.0196 47.0843 20.4872C48.5519 21.9548 49.2857 23.721 49.2857 25.7858Z" fill="#18E8A4"/>
</g>
<defs>
<filter id="filter0_ddddd" x="0" y="0" width="81.6864" height="98.1945" filterUnits="userSpaceOnUse" color-interpolation-filters="sRGB">
<feFlood flood-opacity="0" result="BackgroundImageFix"/>
<feColorMatrix in="SourceAlpha" type="matrix" values="0 0 0 0 0 0 0 0 0 0 0 0 0 0 0 0 0 0 127 0" result="hardAlpha"/>
<feOffset dy="2"/>
<feGaussianBlur stdDeviation="0.5"/>
<feColorMatrix type="matrix" values="0 0 0 0 0 0 0 0 0 0 0 0 0 0 0 0 0 0 0.09 0"/>
<feBlend mode="normal" in2="BackgroundImageFix" result="effect1_dropShadow"/>
<feColorMatrix in="SourceAlpha" type="matrix" values="0 0 0 0 0 0 0 0 0 0 0 0 0 0 0 0 0 0 127 0" result="hardAlpha"/>
<feOffset dy="4"/>
<feGaussianBlur stdDeviation="1"/>
<feColorMatrix type="matrix" values="0 0 0 0 0 0 0 0 0 0 0 0 0 0 0 0 0 0 0.09 0"/>
<feBlend mode="normal" in2="effect1_dropShadow" result="effect2_dropShadow"/>
<feColorMatrix in="SourceAlpha" type="matrix" values="0 0 0 0 0 0 0 0 0 0 0 0 0 0 0 0 0 0 127 0" result="hardAlpha"/>
<feOffset dy="8"/>
<feGaussianBlur stdDeviation="2"/>
<feColorMatrix type="matrix" values="0 0 0 0 0 0 0 0 0 0 0 0 0 0 0 0 0 0 0.09 0"/>
<feBlend mode="normal" in2="effect2_dropShadow" result="effect3_dropShadow"/>
<feColorMatrix in="SourceAlpha" type="matrix" values="0 0 0 0 0 0 0 0 0 0 0 0 0 0 0 0 0 0 127 0" result="hardAlpha"/>
<feOffset dy="16"/>
<feGaussianBlur stdDeviation="4"/>
<feColorMatrix type="matrix" values="0 0 0 0 0 0 0 0 0 0 0 0 0 0 0 0 0 0 0.09 0"/>
<feBlend mode="normal" in2="effect3_dropShadow" result="effect4_dropShadow"/>
<feColorMatrix in="SourceAlpha" type="matrix" values="0 0 0 0 0 0 0 0 0 0 0 0 0 0 0 0 0 0 127 0" result="hardAlpha"/>
<feOffset dy="32"/>
<feGaussianBlur stdDeviation="8"/>
<feColorMatrix type="matrix" values="0 0 0 0 0 0 0 0 0 0 0 0 0 0 0 0 0 0 0.09 0"/>
<feBlend mode="normal" in2="effect4_dropShadow" result="effect5_dropShadow"/>
<feBlend mode="normal" in="SourceGraphic" in2="effect5_dropShadow" result="shape"/>
</filter>
</defs>
</svg>
